<mxfile host="app.diagrams.net" modified="2021-10-20T08:50:21.987Z" agent="5.0 (Windows NT 10.0; Win64; x64) AppleWebKit/537.36 (KHTML, like Gecko) Chrome/94.0.4606.81 Safari/537.36 Edg/94.0.992.50" etag="dr59yH4-vuRhYjLGzr_v" version="15.5.6" type="github">
  <diagram id="D0ospsdvyuDyd9QVyKfy" name="Page-1">
    <mxGraphModel dx="990" dy="579" grid="1" gridSize="10" guides="1" tooltips="1" connect="1" arrows="1" fold="1" page="1" pageScale="1" pageWidth="850" pageHeight="1100" math="0" shadow="0">
      <root>
        <mxCell id="0" />
        <mxCell id="1" parent="0" />
        <mxCell id="gVU5BQfkRuUsBRlk_jHh-1" value="S&lt;br&gt;10" style="ellipse;whiteSpace=wrap;html=1;aspect=fixed;fillColor=#FF0000;fontColor=#FFFFFF;" vertex="1" parent="1">
          <mxGeometry x="370" y="100" width="40" height="40" as="geometry" />
        </mxCell>
        <mxCell id="gVU5BQfkRuUsBRlk_jHh-2" value="" style="endArrow=classic;html=1;rounded=0;exitX=0;exitY=1;exitDx=0;exitDy=0;entryX=0.69;entryY=0.005;entryDx=0;entryDy=0;entryPerimeter=0;" edge="1" parent="1" source="gVU5BQfkRuUsBRlk_jHh-1" target="gVU5BQfkRuUsBRlk_jHh-3">
          <mxGeometry width="50" height="50" relative="1" as="geometry">
            <mxPoint x="380" y="140" as="sourcePoint" />
            <mxPoint x="330" y="190" as="targetPoint" />
          </mxGeometry>
        </mxCell>
        <mxCell id="gVU5BQfkRuUsBRlk_jHh-3" value="A&lt;br&gt;8" style="ellipse;whiteSpace=wrap;html=1;aspect=fixed;" vertex="1" parent="1">
          <mxGeometry x="300" y="200" width="40" height="40" as="geometry" />
        </mxCell>
        <mxCell id="gVU5BQfkRuUsBRlk_jHh-4" value="" style="endArrow=classic;html=1;rounded=0;exitX=0.5;exitY=1;exitDx=0;exitDy=0;entryX=0.5;entryY=0;entryDx=0;entryDy=0;" edge="1" parent="1" source="gVU5BQfkRuUsBRlk_jHh-1" target="gVU5BQfkRuUsBRlk_jHh-5">
          <mxGeometry width="50" height="50" relative="1" as="geometry">
            <mxPoint x="450" y="270" as="sourcePoint" />
            <mxPoint x="390" y="200" as="targetPoint" />
          </mxGeometry>
        </mxCell>
        <mxCell id="gVU5BQfkRuUsBRlk_jHh-5" value="B&lt;br&gt;5" style="ellipse;whiteSpace=wrap;html=1;aspect=fixed;fillColor=#FFFF00;" vertex="1" parent="1">
          <mxGeometry x="370" y="200" width="40" height="40" as="geometry" />
        </mxCell>
        <mxCell id="gVU5BQfkRuUsBRlk_jHh-6" value="" style="endArrow=classic;html=1;rounded=0;exitX=1;exitY=1;exitDx=0;exitDy=0;entryX=0.23;entryY=-0.025;entryDx=0;entryDy=0;entryPerimeter=0;" edge="1" parent="1" source="gVU5BQfkRuUsBRlk_jHh-1" target="gVU5BQfkRuUsBRlk_jHh-7">
          <mxGeometry width="50" height="50" relative="1" as="geometry">
            <mxPoint x="450" y="270" as="sourcePoint" />
            <mxPoint x="440" y="200" as="targetPoint" />
          </mxGeometry>
        </mxCell>
        <mxCell id="gVU5BQfkRuUsBRlk_jHh-7" value="C&lt;br&gt;5" style="ellipse;whiteSpace=wrap;html=1;aspect=fixed;" vertex="1" parent="1">
          <mxGeometry x="440" y="200" width="40" height="40" as="geometry" />
        </mxCell>
        <mxCell id="gVU5BQfkRuUsBRlk_jHh-8" value="" style="endArrow=classic;html=1;rounded=0;exitX=0;exitY=1;exitDx=0;exitDy=0;entryX=0.68;entryY=-0.015;entryDx=0;entryDy=0;entryPerimeter=0;" edge="1" parent="1" source="gVU5BQfkRuUsBRlk_jHh-5" target="gVU5BQfkRuUsBRlk_jHh-9">
          <mxGeometry width="50" height="50" relative="1" as="geometry">
            <mxPoint x="380" y="240" as="sourcePoint" />
            <mxPoint x="340" y="290" as="targetPoint" />
          </mxGeometry>
        </mxCell>
        <mxCell id="gVU5BQfkRuUsBRlk_jHh-9" value="D&lt;br&gt;4" style="ellipse;whiteSpace=wrap;html=1;aspect=fixed;" vertex="1" parent="1">
          <mxGeometry x="310" y="290" width="40" height="40" as="geometry" />
        </mxCell>
        <mxCell id="gVU5BQfkRuUsBRlk_jHh-10" value="" style="endArrow=classic;html=1;rounded=0;exitX=1;exitY=1;exitDx=0;exitDy=0;entryX=0.5;entryY=0;entryDx=0;entryDy=0;" edge="1" parent="1" source="gVU5BQfkRuUsBRlk_jHh-5" target="gVU5BQfkRuUsBRlk_jHh-11">
          <mxGeometry width="50" height="50" relative="1" as="geometry">
            <mxPoint x="450" y="240" as="sourcePoint" />
            <mxPoint x="420" y="300" as="targetPoint" />
          </mxGeometry>
        </mxCell>
        <mxCell id="gVU5BQfkRuUsBRlk_jHh-11" value="E&lt;br&gt;2" style="ellipse;whiteSpace=wrap;html=1;aspect=fixed;fillColor=#FFFF00;" vertex="1" parent="1">
          <mxGeometry x="405" y="290" width="40" height="40" as="geometry" />
        </mxCell>
        <mxCell id="gVU5BQfkRuUsBRlk_jHh-13" value="" style="endArrow=classic;html=1;rounded=0;exitX=0.5;exitY=1;exitDx=0;exitDy=0;entryX=0.5;entryY=0;entryDx=0;entryDy=0;" edge="1" parent="1" source="gVU5BQfkRuUsBRlk_jHh-11" target="gVU5BQfkRuUsBRlk_jHh-14">
          <mxGeometry width="50" height="50" relative="1" as="geometry">
            <mxPoint x="430" y="330" as="sourcePoint" />
            <mxPoint x="430" y="370" as="targetPoint" />
          </mxGeometry>
        </mxCell>
        <mxCell id="gVU5BQfkRuUsBRlk_jHh-14" value="G&lt;br&gt;0" style="ellipse;whiteSpace=wrap;html=1;aspect=fixed;fillColor=#006600;fontColor=#FFFFFF;" vertex="1" parent="1">
          <mxGeometry x="410" y="370" width="40" height="40" as="geometry" />
        </mxCell>
        <mxCell id="gVU5BQfkRuUsBRlk_jHh-15" value="&lt;font color=&quot;#b5739d&quot;&gt;Nodes which were expanded are colored&lt;/font&gt;&lt;br&gt;&lt;b&gt;&lt;font color=&quot;#97d077&quot;&gt;GBFS also maintains priority queue&lt;/font&gt;&lt;/b&gt;" style="text;html=1;align=center;verticalAlign=middle;resizable=0;points=[];autosize=1;strokeColor=none;fillColor=none;fontColor=#FFFFFF;" vertex="1" parent="1">
          <mxGeometry x="480" y="260" width="230" height="30" as="geometry" />
        </mxCell>
      </root>
    </mxGraphModel>
  </diagram>
</mxfile>
